<svg xmlns="http://www.w3.org/2000/svg" class="sx" viewBox="0 0 1338 1162" width="1338" height="1162" role="img" aria-labelledby="t-interceptor-power">
<title id="t-interceptor-power">Interceptor — power: SysML v2 interconnection view of InterceptorDrone</title>
<style>
.sx text{font-family:"Helvetica Neue",Helvetica,Arial,"Liberation Sans",sans-serif}
.sx .sx-bg{fill:var(--sx-bg,#FBFAF5)}
.sx .sx-frame{fill:none;stroke:var(--sx-ink2,#8A8475);stroke-width:1.2}
.sx .sx-tab{font-size:12px;font-weight:700;fill:var(--sx-ink,#1C1B17);
  font-family:ui-monospace,"DejaVu Sans Mono",Menlo,Consolas,monospace}
.sx .sx-purpose{font-size:12px;fill:var(--sx-mut,#57534A)}
.sx .sx-box{fill:var(--sx-panel,#FFFFFF);stroke:var(--sx-ink,#1C1B17);stroke-width:1.4}
.sx .sx-rule{stroke:var(--sx-line,#C9C3B1);stroke-width:1}
.sx .sx-name{font-size:13.5px;font-weight:700;fill:var(--sx-ink,#1C1B17)}
.sx .sx-type{font-size:10.5px;fill:var(--sx-mut,#57534A);
  font-family:ui-monospace,"DejaVu Sans Mono",Menlo,Consolas,monospace}
.sx .sx-chip{fill:none;stroke-width:1}
.sx .sx-chipt{font-size:9px;font-weight:700;letter-spacing:.06em;text-anchor:middle}
.sx .sx-ok{stroke:var(--sx-ok,#2D5F3E);fill:var(--sx-ok,#2D5F3E)}
.sx .sx-warn{stroke:var(--sx-warn,#8A6A12);fill:var(--sx-warn,#8A6A12)}
.sx .sx-acc{stroke:var(--sx-acc,#29527A);fill:var(--sx-acc,#29527A)}
.sx .sx-bad{stroke:var(--sx-bad,#A63A22);fill:var(--sx-bad,#A63A22)}
.sx .sx-mut{stroke:var(--sx-mut,#57534A);fill:var(--sx-mut,#57534A)}
.sx rect.sx-chip{fill:none}
.sx .sx-pl{font-size:10px;fill:var(--sx-ink,#1C1B17);
  font-family:ui-monospace,"DejaVu Sans Mono",Menlo,Consolas,monospace}
.sx .sx-end{text-anchor:end}
.sx .sx-p{fill:var(--sx-ink,#1C1B17);stroke:var(--sx-ink,#1C1B17);stroke-width:1.2}
.sx .sx-pc{fill:var(--sx-panel,#FFFFFF);stroke:var(--sx-ink,#1C1B17);stroke-width:1.4}
.sx .sx-w{fill:none;stroke-width:2.2;stroke-linejoin:round}
.sx .sx-w.sx-c-power{stroke:var(--sx-power,#B5452B);stroke-width:3}
.sx .sx-w.sx-c-data{stroke:var(--sx-data,#2F6690)}
.sx .sx-w.sx-c-rf{stroke:var(--sx-rf,#7A4E9C);stroke-dasharray:9 5}
.sx .sx-w.sx-c-mechanical{stroke:var(--sx-mech,#6E6A5C);stroke-dasharray:2 4;stroke-width:2.6}
.sx .sx-w.sx-c-optical{stroke:var(--sx-opt,#2D7D5A);stroke-dasharray:12 4 2 4}
.sx .sx-w.sx-s-planned{stroke-opacity:.5}
.sx .sx-pill rect{stroke-width:1.4}
.sx .sx-pill text{font-size:10px;font-weight:700;text-anchor:middle}
.sx .sx-pill.sx-c-power rect{stroke:var(--sx-power,#B5452B)}
.sx .sx-pill.sx-c-data rect{stroke:var(--sx-data,#2F6690)}
.sx .sx-pill.sx-c-rf rect{stroke:var(--sx-rf,#7A4E9C)}
.sx .sx-pill.sx-c-mechanical rect{stroke:var(--sx-mech,#6E6A5C)}
.sx .sx-pill.sx-c-optical rect{stroke:var(--sx-opt,#2D7D5A)}
.sx .sx-pill.sx-s-verified.sx-c-power rect{fill:var(--sx-power,#B5452B)}
.sx .sx-pill.sx-s-verified.sx-c-data rect{fill:var(--sx-data,#2F6690)}
.sx .sx-pill.sx-s-verified.sx-c-rf rect{fill:var(--sx-rf,#7A4E9C)}
.sx .sx-pill.sx-s-verified.sx-c-mechanical rect{fill:var(--sx-mech,#6E6A5C)}
.sx .sx-pill.sx-s-verified.sx-c-optical rect{fill:var(--sx-opt,#2D7D5A)}
.sx .sx-pill.sx-s-verified text{fill:var(--sx-panel,#FFFFFF)}
.sx .sx-pill.sx-s-wired rect{fill:var(--sx-panel,#FFFFFF);stroke-width:2.6}
.sx .sx-pill.sx-s-wired text{fill:var(--sx-ink,#1C1B17)}
.sx .sx-pill.sx-s-planned rect{fill:var(--sx-panel,#FFFFFF);stroke-dasharray:3 2}
.sx .sx-pill.sx-s-planned text{fill:var(--sx-mut,#57534A)}
.sx .sx-h{font-size:10.5px;font-weight:700;letter-spacing:.12em;fill:var(--sx-mut,#57534A)}
.sx .sx-wl{font-size:11.5px;fill:var(--sx-ink,#1C1B17)}
.sx .sx-wn{font-weight:700}
.sx .sx-wm{font-family:ui-monospace,"DejaVu Sans Mono",Menlo,Consolas,monospace;font-size:10.5px}
.sx .sx-wt{fill:var(--sx-mut,#57534A);font-size:10.5px}
.sx .sx-ws{font-size:9.5px;font-weight:700;letter-spacing:.06em}
.sx .sx-ws.sx-s-verified{fill:var(--sx-ok,#2D5F3E)}
.sx .sx-ws.sx-s-wired{fill:var(--sx-warn,#8A6A12)}
.sx .sx-ws.sx-s-planned{fill:var(--sx-mut,#57534A)}
.sx .sx-wd{font-size:11px;fill:var(--sx-mut,#57534A)}
.sx .sx-lg{font-size:10.5px;fill:var(--sx-mut,#57534A)}
</style>
<rect class="sx-bg" x="0" y="0" width="1338" height="1162"/>
<rect class="sx-frame" x="12" y="12" width="1314" height="736"/>
<path class="sx-frame" d="M12 36 H316 L328 24 V12"/>
<text class="sx-tab" x="22" y="29">ibd [part def] InterceptorDrone [power]</text>
<text class="sx-purpose" x="342" y="29">Two independent rails: PM02 feeds the flight controller, the Matek BEC feeds the Pi.</text>
<g class="sx-node"><rect class="sx-box" x="64" y="64" width="214" height="78" rx="2"/>
<text class="sx-name" x="74" y="82">battery</text>
<text class="sx-type" x="74" y="98">: LiPo6S1500</text>
<rect class="sx-chip sx-warn" x="213.2" y="88" width="56.8" height="15" rx="2"/>
<text class="sx-chipt sx-warn" x="241.6" y="99">ORDERED</text>
<line class="sx-rule" x1="64" y1="106" x2="278" y2="106"/>
</g>
<g class="sx-node"><rect class="sx-box" x="396" y="64" width="214" height="100" rx="2"/>
<text class="sx-name" x="406" y="82">pm02</text>
<text class="sx-type" x="406" y="98">: PM02V3</text>
<rect class="sx-chip sx-warn" x="545.2" y="88" width="56.8" height="15" rx="2"/>
<text class="sx-chipt sx-warn" x="573.6" y="99">ORDERED</text>
<line class="sx-rule" x1="396" y1="106" x2="610" y2="106"/>
</g>
<g class="sx-node"><rect class="sx-box" x="728" y="64" width="214" height="78" rx="2"/>
<text class="sx-name" x="738" y="82">esc</text>
<text class="sx-type" x="738" y="98">: KO60IIESC</text>
<rect class="sx-chip sx-warn" x="877.2" y="88" width="56.8" height="15" rx="2"/>
<text class="sx-chipt sx-warn" x="905.6" y="99">ORDERED</text>
<line class="sx-rule" x1="728" y1="106" x2="942" y2="106"/>
</g>
<g class="sx-node"><rect class="sx-box" x="1060" y="64" width="214" height="78" rx="2"/>
<text class="sx-name" x="1070" y="82">motors</text>
<text class="sx-type" x="1070" y="98">: EcoII2207 [4]</text>
<rect class="sx-chip sx-warn" x="1209.2" y="88" width="56.8" height="15" rx="2"/>
<text class="sx-chipt sx-warn" x="1237.6" y="99">ORDERED</text>
<line class="sx-rule" x1="1060" y1="106" x2="1274" y2="106"/>
</g>
<g class="sx-node"><rect class="sx-box" x="396" y="238" width="214" height="144" rx="2"/>
<text class="sx-name" x="406" y="256">fc</text>
<text class="sx-type" x="406" y="272">: Pixhawk6CMini</text>
<rect class="sx-chip sx-ok" x="545.2" y="262" width="56.8" height="15" rx="2"/>
<text class="sx-chipt sx-ok" x="573.6" y="273">IN HAND</text>
<line class="sx-rule" x1="396" y1="280" x2="610" y2="280"/>
</g>
<g class="sx-node"><rect class="sx-box" x="728" y="238" width="214" height="78" rx="2"/>
<text class="sx-name" x="738" y="256">gps</text>
<text class="sx-type" x="738" y="272">: HolybroM10</text>
<rect class="sx-chip sx-ok" x="877.2" y="262" width="56.8" height="15" rx="2"/>
<text class="sx-chipt sx-ok" x="905.6" y="273">IN HAND</text>
<line class="sx-rule" x1="728" y1="280" x2="942" y2="280"/>
</g>
<g class="sx-node"><rect class="sx-box" x="64" y="456" width="214" height="100" rx="2"/>
<text class="sx-name" x="74" y="474">bec</text>
<text class="sx-type" x="74" y="490">: MatekBEC12SPro</text>
<rect class="sx-chip sx-warn" x="213.2" y="480" width="56.8" height="15" rx="2"/>
<text class="sx-chipt sx-warn" x="241.6" y="491">ORDERED</text>
<line class="sx-rule" x1="64" y1="498" x2="278" y2="498"/>
</g>
<g class="sx-node"><rect class="sx-box" x="396" y="456" width="214" height="78" rx="2"/>
<text class="sx-name" x="406" y="474">pi</text>
<text class="sx-type" x="406" y="490">: RaspberryPi5</text>
<rect class="sx-chip sx-ok" x="545.2" y="480" width="56.8" height="15" rx="2"/>
<text class="sx-chipt sx-ok" x="573.6" y="491">IN HAND</text>
<line class="sx-rule" x1="396" y1="498" x2="610" y2="498"/>
</g>
<g class="sx-node"><rect class="sx-box" x="728" y="456" width="214" height="78" rx="2"/>
<text class="sx-name" x="738" y="474">rx</text>
<text class="sx-type" x="738" y="490">: RP3Diversity</text>
<rect class="sx-chip sx-warn" x="877.2" y="480" width="56.8" height="15" rx="2"/>
<text class="sx-chipt sx-warn" x="905.6" y="491">ORDERED</text>
<line class="sx-rule" x1="728" y1="498" x2="942" y2="498"/>
</g>
<g class="sx-node"><rect class="sx-box" x="1060" y="456" width="214" height="78" rx="2"/>
<text class="sx-name" x="1070" y="474">finder</text>
<text class="sx-type" x="1070" y="490">: FlywooFinderV1</text>
<rect class="sx-chip sx-warn" x="1209.2" y="480" width="56.8" height="15" rx="2"/>
<text class="sx-chipt sx-warn" x="1237.6" y="491">ORDERED</text>
<line class="sx-rule" x1="1060" y1="498" x2="1274" y2="498"/>
</g>
<g class="sx-node"><rect class="sx-box" x="64" y="630" width="214" height="78" rx="2"/>
<text class="sx-name" x="74" y="648">railCap</text>
<text class="sx-type" x="74" y="664">: RailCap1000uF</text>
<rect class="sx-chip sx-bad" x="206.8" y="654" width="63.2" height="15" rx="2"/>
<text class="sx-chipt sx-bad" x="238.4" y="665">MUST-ADD</text>
<line class="sx-rule" x1="64" y1="672" x2="278" y2="672"/>
</g>
<g class="sx-node"><rect class="sx-box" x="1060" y="630" width="214" height="78" rx="2"/>
<text class="sx-name" x="1070" y="648">cooler</text>
<text class="sx-type" x="1070" y="664">: PiActiveCooler</text>
<rect class="sx-chip sx-ok" x="1209.2" y="654" width="56.8" height="15" rx="2"/>
<text class="sx-chipt sx-ok" x="1237.6" y="665">IN HAND</text>
<line class="sx-rule" x1="1060" y1="672" x2="1274" y2="672"/>
</g>
<path class="sx-w sx-c-power sx-s-planned" d="M278.0 121.0 L337.0 121.0 L337.0 121.0 L396.0 121.0"/>
<path class="sx-w sx-c-power sx-s-planned" d="M610.0 121.0 L669.0 121.0 L669.0 121.0 L728.0 121.0"/>
<path class="sx-w sx-c-power sx-s-planned" d="M942.0 121.0 L1001.0 121.0 L1001.0 121.0 L1060.0 121.0"/>
<path class="sx-w sx-c-power sx-s-planned" d="M610.0 143.0 L676.0 143.0 L676.0 295.0 L610.0 295.0"/>
<path class="sx-w sx-c-power sx-s-planned" d="M278.0 121.0 L344.0 121.0 L344.0 513.0 L278.0 513.0"/>
<path class="sx-w sx-c-power sx-s-planned" d="M278.0 535.0 L351.0 535.0 L351.0 513.0 L396.0 513.0"/>
<path class="sx-w sx-c-power sx-s-planned" d="M278.0 535.0 L330.0 535.0 L330.0 687.0 L278.0 687.0"/>
<path class="sx-w sx-c-power sx-s-verified" d="M610.0 513.0 L662.0 513.0 L662.0 687.0 L1060.0 687.0"/>
<path class="sx-w sx-c-power sx-s-verified" d="M610.0 317.0 L683.0 317.0 L683.0 295.0 L728.0 295.0"/>
<path class="sx-w sx-c-power sx-s-planned" d="M610.0 361.0 L690.0 361.0 L690.0 513.0 L728.0 513.0"/>
<path class="sx-w sx-c-power sx-s-planned" d="M610.0 339.0 L1008.0 339.0 L1008.0 513.0 L1060.0 513.0"/>
<rect class="sx-p" x="273.0" y="116.0" width="10" height="10"/>
<text class="sx-pl sx-end" x="269.0" y="124.5">main</text>
<rect class="sx-pc" x="391.0" y="116.0" width="10" height="10"/>
<text class="sx-pl" x="405.0" y="124.5">battIn</text>
<rect class="sx-p" x="605.0" y="116.0" width="10" height="10"/>
<text class="sx-pl sx-end" x="601.0" y="124.5">battOut</text>
<rect class="sx-p" x="605.0" y="138.0" width="10" height="10"/>
<text class="sx-pl sx-end" x="601.0" y="146.5">fcLead</text>
<rect class="sx-pc" x="723.0" y="116.0" width="10" height="10"/>
<text class="sx-pl" x="737.0" y="124.5">batt</text>
<rect class="sx-p" x="937.0" y="116.0" width="10" height="10"/>
<text class="sx-pl sx-end" x="933.0" y="124.5">motorOut</text>
<rect class="sx-pc" x="1055.0" y="116.0" width="10" height="10"/>
<text class="sx-pl" x="1069.0" y="124.5">phase</text>
<rect class="sx-pc" x="605.0" y="290.0" width="10" height="10"/>
<text class="sx-pl sx-end" x="601.0" y="298.5">power1</text>
<rect class="sx-p" x="605.0" y="312.0" width="10" height="10"/>
<text class="sx-pl sx-end" x="601.0" y="320.5">gps1</text>
<rect class="sx-p" x="605.0" y="334.0" width="10" height="10"/>
<text class="sx-pl sx-end" x="601.0" y="342.5">buzzerTap</text>
<rect class="sx-p" x="605.0" y="356.0" width="10" height="10"/>
<text class="sx-pl sx-end" x="601.0" y="364.5">rcIn</text>
<rect class="sx-pc" x="723.0" y="290.0" width="10" height="10"/>
<text class="sx-pl" x="737.0" y="298.5">fcConn</text>
<rect class="sx-pc" x="273.0" y="508.0" width="10" height="10"/>
<text class="sx-pl sx-end" x="269.0" y="516.5">vin</text>
<rect class="sx-p" x="273.0" y="530.0" width="10" height="10"/>
<text class="sx-pl sx-end" x="269.0" y="538.5">out5v</text>
<rect class="sx-pc" x="391.0" y="508.0" width="10" height="10"/>
<text class="sx-pl" x="405.0" y="516.5">pwrIn</text>
<rect class="sx-p" x="605.0" y="508.0" width="10" height="10"/>
<text class="sx-pl sx-end" x="601.0" y="516.5">fanHeader</text>
<rect class="sx-pc" x="723.0" y="508.0" width="10" height="10"/>
<text class="sx-pl" x="737.0" y="516.5">fcConn</text>
<rect class="sx-pc" x="1055.0" y="508.0" width="10" height="10"/>
<text class="sx-pl" x="1069.0" y="516.5">fcConn</text>
<rect class="sx-pc" x="273.0" y="682.0" width="10" height="10"/>
<text class="sx-pl sx-end" x="269.0" y="690.5">rail</text>
<rect class="sx-pc" x="1055.0" y="682.0" width="10" height="10"/>
<text class="sx-pl" x="1069.0" y="690.5">header</text>
<g class="sx-pill sx-c-power sx-s-planned"><rect x="355.5" y="113.0" width="22" height="16" rx="8"/><text x="366.5" y="125.0">1</text></g>
<g class="sx-pill sx-c-power sx-s-planned"><rect x="687.5" y="113.0" width="22" height="16" rx="8"/><text x="698.5" y="125.0">2</text></g>
<g class="sx-pill sx-c-power sx-s-planned"><rect x="1019.5" y="113.0" width="22" height="16" rx="8"/><text x="1030.5" y="125.0">3</text></g>
<g class="sx-pill sx-c-power sx-s-planned"><rect x="665.0" y="211.0" width="22" height="16" rx="8"/><text x="676.0" y="223.0">4</text></g>
<g class="sx-pill sx-c-power sx-s-planned"><rect x="333.0" y="309.0" width="22" height="16" rx="8"/><text x="344.0" y="321.0">5</text></g>
<g class="sx-pill sx-c-power sx-s-planned"><rect x="303.5" y="527.0" width="22" height="16" rx="8"/><text x="314.5" y="539.0">6</text></g>
<g class="sx-pill sx-c-power sx-s-planned"><rect x="319.0" y="603.0" width="22" height="16" rx="8"/><text x="330.0" y="615.0">7</text></g>
<g class="sx-pill sx-c-power sx-s-verified"><rect x="850.0" y="679.0" width="22" height="16" rx="8"/><text x="861.0" y="691.0">8</text></g>
<g class="sx-pill sx-c-power sx-s-verified"><rect x="635.5" y="309.0" width="22" height="16" rx="8"/><text x="646.5" y="321.0">9</text></g>
<g class="sx-pill sx-c-power sx-s-planned"><rect x="679.0" y="429.0" width="22" height="16" rx="8"/><text x="690.0" y="441.0">10</text></g>
<g class="sx-pill sx-c-power sx-s-planned"><rect x="798.0" y="331.0" width="22" height="16" rx="8"/><text x="809.0" y="343.0">11</text></g>
<text class="sx-h" x="20" y="770">WIRE LIST — every connection in this view</text>
<g class="sx-pill sx-c-power sx-s-planned"><rect x="20" y="778" width="22" height="16" rx="8"/><text x="31" y="790">1</text></g>
<text class="sx-wl" x="52" y="790"><tspan class="sx-wn">mainPower</tspan><tspan class="sx-wm">  battery.main → pm02.battIn</tspan><tspan class="sx-wt">  : DCPowerLink</tspan><tspan class="sx-ws sx-s-planned">  PLANNED</tspan></text>
<text class="sx-wd" x="52" y="804">XT60 — 6S main power into the power module</text>
<g class="sx-pill sx-c-power sx-s-planned"><rect x="20" y="808" width="22" height="16" rx="8"/><text x="31" y="820">2</text></g>
<text class="sx-wl" x="52" y="820"><tspan class="sx-wn">escPower</tspan><tspan class="sx-wm">  pm02.battOut → esc.batt</tspan><tspan class="sx-wt">  : DCPowerLink</tspan><tspan class="sx-ws sx-s-planned">  PLANNED</tspan></text>
<text class="sx-wd" x="52" y="834">XT60 pigtail, 14 AWG — PM02 pass-through to the ESC pads</text>
<g class="sx-pill sx-c-power sx-s-planned"><rect x="20" y="838" width="22" height="16" rx="8"/><text x="31" y="850">3</text></g>
<text class="sx-wl" x="52" y="850"><tspan class="sx-wn">motorLeads</tspan><tspan class="sx-wm">  esc.motorOut → motors.phase</tspan><tspan class="sx-wt">  : PhaseLink</tspan><tspan class="sx-ws sx-s-planned">  PLANNED</tspan></text>
<text class="sx-wd" x="52" y="864">3-phase leads, soldered — 4 channels; verify order + direction in QGC (afr-03)</text>
<g class="sx-pill sx-c-power sx-s-planned"><rect x="20" y="868" width="22" height="16" rx="8"/><text x="31" y="880">4</text></g>
<text class="sx-wl" x="52" y="880"><tspan class="sx-wn">fcPower</tspan><tspan class="sx-wm">  pm02.fcLead → fc.power1</tspan><tspan class="sx-wt">  : PowerModuleLink</tspan><tspan class="sx-ws sx-s-planned">  PLANNED</tspan></text>
<text class="sx-wd" x="52" y="894">6-pin JST-GH — 5.2 V + analog V/I sense to POWER1</text>
<g class="sx-pill sx-c-power sx-s-planned"><rect x="20" y="898" width="22" height="16" rx="8"/><text x="31" y="910">5</text></g>
<text class="sx-wl" x="52" y="910"><tspan class="sx-wn">becFeed</tspan><tspan class="sx-wm">  battery.main → bec.vin</tspan><tspan class="sx-wt">  : DCPowerLink</tspan><tspan class="sx-ws sx-s-planned">  PLANNED</tspan></text>
<text class="sx-wd" x="52" y="924">16 AWG tap on the main leads — LiPo main straight to the BEC -- second rail</text>
<g class="sx-pill sx-c-power sx-s-planned"><rect x="20" y="928" width="22" height="16" rx="8"/><text x="31" y="940">6</text></g>
<text class="sx-wl" x="52" y="940"><tspan class="sx-wn">piRail</tspan><tspan class="sx-wm">  bec.out5v → pi.pwrIn</tspan><tspan class="sx-wt">  : DCPowerLink</tspan><tspan class="sx-ws sx-s-planned">  PLANNED</tspan></text>
<text class="sx-wd" x="52" y="954">5 V lead to the Pi (entry point TBD) — 5.2 V; USB-C pigtail or header 5 V/GND -- decide at afr-05</text>
<g class="sx-pill sx-c-power sx-s-planned"><rect x="20" y="958" width="22" height="16" rx="8"/><text x="31" y="970">7</text></g>
<text class="sx-wl" x="52" y="970"><tspan class="sx-wn">railSmoothing</tspan><tspan class="sx-wm">  bec.out5v → railCap.rail</tspan><tspan class="sx-wt">  : DCPowerLink</tspan><tspan class="sx-ws sx-s-planned">  PLANNED</tspan></text>
<text class="sx-wd" x="52" y="984">soldered across the rail at the Pi end — 1000 uF 16 V low-ESR</text>
<g class="sx-pill sx-c-power sx-s-verified"><rect x="20" y="988" width="22" height="16" rx="8"/><text x="31" y="1000">8</text></g>
<text class="sx-wl" x="52" y="1000"><tspan class="sx-wn">fan</tspan><tspan class="sx-wm">  pi.fanHeader → cooler.header</tspan><tspan class="sx-wt">  : FanLink</tspan><tspan class="sx-ws sx-s-verified">  VERIFIED (skr-07)</tspan></text>
<text class="sx-wd" x="52" y="1014">4-pin fan header — 5 V + PWM + tach</text>
<g class="sx-pill sx-c-power sx-s-verified"><rect x="20" y="1018" width="22" height="16" rx="8"/><text x="31" y="1030">9</text></g>
<text class="sx-wl" x="52" y="1030"><tspan class="sx-wn">gpsCable</tspan><tspan class="sx-wm">  fc.gps1 → gps.fcConn</tspan><tspan class="sx-wt">  : GPSCableLink</tspan><tspan class="sx-ws sx-s-verified">  VERIFIED (brn-02)</tspan></text>
<text class="sx-wd" x="52" y="1044">10-pin JST-GH — GPS UART (UBX 10 Hz) + IST8310 compass on GPS1&#x27;s own I2C + 5 V</text>
<g class="sx-pill sx-c-power sx-s-planned"><rect x="20" y="1048" width="22" height="16" rx="8"/><text x="31" y="1060">10</text></g>
<text class="sx-wl" x="52" y="1060"><tspan class="sx-wn">rcSbus</tspan><tspan class="sx-wm">  fc.rcIn → rx.fcConn</tspan><tspan class="sx-wt">  : RCInLink</tspan><tspan class="sx-ws sx-s-planned">  PLANNED</tspan></text>
<text class="sx-wd" x="52" y="1074">RC IN socket — SBUS (ELRS flashed to SBUS out) + 5 V; kill/arm only</text>
<g class="sx-pill sx-c-power sx-s-planned"><rect x="20" y="1078" width="22" height="16" rx="8"/><text x="31" y="1090">11</text></g>
<text class="sx-wl" x="52" y="1090"><tspan class="sx-wn">buzzer</tspan><tspan class="sx-wm">  fc.buzzerTap → finder.fcConn</tspan><tspan class="sx-wt">  : BuzzerLink</tspan><tspan class="sx-ws sx-s-planned">  PLANNED</tspan></text>
<text class="sx-wd" x="52" y="1104">TBD — drive pin UNRESOLVED -- the 6C Mini has no buzzer pad</text>
<text class="sx-h" x="20" y="1122">KEY</text>
<path class="sx-w sx-c-power sx-s-verified" d="M60 1118 H90"/>
<text class="sx-lg" x="96" y="1122">power</text>
<g class="sx-pill sx-c-power sx-s-verified"><rect x="136.5" y="1110" width="22" height="16" rx="8"/><text x="147.5" y="1122">n</text></g>
<text class="sx-lg" x="164.5" y="1122">verified (logged step)</text>
<g class="sx-pill sx-c-power sx-s-wired"><rect x="312.9" y="1110" width="22" height="16" rx="8"/><text x="323.9" y="1122">n</text></g>
<text class="sx-lg" x="340.9" y="1122">wired, untested</text>
<g class="sx-pill sx-c-power sx-s-planned"><rect x="445.9" y="1110" width="22" height="16" rx="8"/><text x="456.9" y="1122">n</text></g>
<text class="sx-lg" x="473.9" y="1122">planned</text>
<rect class="sx-p" x="529.3" y="1112" width="10" height="10"/>
<text class="sx-lg" x="545.3" y="1122">port (supplies / hosts)</text>
<rect class="sx-pc" x="699.3" y="1112" width="10" height="10"/>
<text class="sx-lg" x="715.3" y="1122">~port (conjugate: receives)</text>
</svg>
